<?xml version="1.0" encoding="UTF-8" standalone="no"?>
<svg
   xmlns:dc="http://purl.org/dc/elements/1.1/"
   xmlns:cc="http://creativecommons.org/ns#"
   xmlns:rdf="http://www.w3.org/1999/02/22-rdf-syntax-ns#"
   xmlns:svg="http://www.w3.org/2000/svg"
   xmlns="http://www.w3.org/2000/svg"
   id="svg8"
   version="1.1"
   viewBox="0 0 115.62292 62.70625"
   height="237"
   width="437">
  <defs
     id="defs2" />
  <metadata
     id="metadata5">
    <rdf:RDF>
      <cc:Work
         rdf:about="">
        <dc:format>image/svg+xml</dc:format>
        <dc:type
           rdf:resource="http://purl.org/dc/dcmitype/StillImage" />
        <dc:title></dc:title>
      </cc:Work>
    </rdf:RDF>
  </metadata>
  <g
     transform="translate(235.92716,-104.7273)"
     id="layer1">
    <path
       style="fill:#071d49;stroke-width:0.54866958"
       d="m -157.05606,151.30189 h 35.12583 l -7.48825,-12.97769 v -4.43872 l 2.07398,-2.70769 h -6.22082 l -5.92781,-10.31883 -5.92729,10.29413 h -6.22027 l 2.07398,2.70769 v 4.43985 z m 7.48935,-1.75574 h -4.4157 l 4.41514,-7.65944 z m 3.07364,0 h -1.29267 v -10.48947 h 1.29267 z m 0,-12.24522 h -1.29267 v -1.29266 h 1.29267 z m 6.12315,12.24522 h -4.36631 v -10.48947 h 4.34217 z m 6.12316,0 h -4.36852 v -10.48947 h 4.34218 v 10.46476 h 0.0241 z m 0,-12.24522 h -10.49057 v -1.29266 h 10.46478 z m 3.04895,12.24522 h -1.29431 v -10.48947 h 1.29267 z m 0,-12.24522 h -1.29431 v -1.29266 h 1.29267 z m 1.78098,4.56164 4.41514,7.65944 h -4.41514 c 0,0.0241 0,-7.65944 0,-7.65944 z m -10.0763,-17.4175 3.87909,6.73216 h -7.75819 z m 8.56198,8.51315 -0.26886,0.34127 v 0.95141 h -16.58683 v -0.95141 l -0.26884,-0.34127 z"
       id="path4582" />
    <g
       transform="matrix(0.63978862,0,0,0.63978862,-194.93692,119.44592)"
       id="g4619">
      <rect
         style="fill:#ffaaaa"
         ry="4"
         rx="4"
         height="40"
         width="40"
         y="0"
         x="0"
         id="rect4593" />
      <rect
         style="fill:#aaffaa"
         ry="4"
         rx="4"
         height="40"
         width="40"
         y="12"
         x="12"
         id="rect4595" />
      <path
         style="fill:#ff0000"
         d="m 18,22 h 12 v 4 H 18 Z"
         id="path4597" />
      <path
         style="fill:#ff0000"
         d="m 34,22 h 12 v 4 H 34 Z"
         id="path4599" />
      <path
         style="fill:#008000"
         d="m 18,36 h 4 v -4 h 4 v 4 h 4 v 4 h -4 v 4 h -4 v -4 h -4 z"
         id="path4601" />
      <path
         style="fill:#008000"
         d="m 34,36 h 4 v -4 h 4 v 4 h 4 v 4 h -4 v 4 h -4 v -4 h -4 z"
         id="path4603" />
    </g>
    <path
       id="path4627"
       d="m -201.99771,134.68171 -13.71249,-13.71082 c -0.78898,-0.78969 -2.06969,-0.78969 -2.85966,0 l -2.84725,2.84753 3.61165,3.61164 c 0.83961,-0.28349 1.80199,-0.0935 2.47095,0.57568 0.67243,0.67326 0.86115,1.64384 0.57055,2.48628 l 3.48098,3.48097 c 0.84216,-0.2902 1.81382,-0.10272 2.48628,0.57095 0.94015,0.93987 0.94015,2.46285 0,3.40297 -0.94029,0.94042 -2.46326,0.94042 -3.40407,0 -0.70692,-0.70747 -0.88177,-1.74614 -0.52372,-2.61714 l -3.2464,-3.24639 -2.7e-4,8.54285 c 0.2292,0.11347 0.44551,0.2649 0.63651,0.45508 0.93988,0.93977 0.93988,2.46246 0,3.40379 -0.94015,0.93974 -2.46381,0.93974 -3.40298,0 -0.94,-0.94124 -0.94,-2.46395 0,-3.40379 0.23232,-0.23189 0.50112,-0.40742 0.78794,-0.52507 V 131.934 c -0.28695,-0.11715 -0.55545,-0.29137 -0.78809,-0.52512 -0.71202,-0.71147 -0.88351,-1.75648 -0.51835,-2.63084 l -3.56038,-3.56092 -9.40151,9.40125 c -0.78995,0.7903 -0.78995,2.071 0,2.86075 l 13.71167,13.71084 c 0.78942,0.7897 2.06968,0.7897 2.86021,0 l 13.64828,-13.64606 c 0.78969,-0.79009 0.78969,-2.07116 0,-2.86103"
       style="fill:#f05133;stroke-width:0.27565584" />
  </g>
</svg>
