<?xml version="1.0" encoding="UTF-8" standalone="no"?>
<svg
   xmlns:dc="http://purl.org/dc/elements/1.1/"
   xmlns:cc="http://creativecommons.org/ns#"
   xmlns:rdf="http://www.w3.org/1999/02/22-rdf-syntax-ns#"
   xmlns:svg="http://www.w3.org/2000/svg"
   xmlns="http://www.w3.org/2000/svg"
   id="svg1580"
   version="1.1"
   viewBox="0 0 63.024824 75.935417"
   height="287"
   width="238.20407">
  <defs
     id="defs1574">
    <clipPath
       id="clip2">
      <path
         id="path5"
         d="M 0,0 H 113 V 138.17187 H 0 Z m 0,0" />
    </clipPath>
  </defs>
  <metadata
     id="metadata1577">
    <rdf:RDF>
      <cc:Work
         rdf:about="">
        <dc:format>image/svg+xml</dc:format>
        <dc:type
           rdf:resource="http://purl.org/dc/dcmitype/StillImage" />
        <dc:title></dc:title>
      </cc:Work>
    </rdf:RDF>
  </metadata>
  <g
     transform="translate(-83.40359,-221.85833)"
     id="layer1">
    <g
       id="g1572"
       transform="matrix(0.51128407,0,0,0.51128407,86.049423,224.50416)">
      <path
         id="path78"
         d="m 85.773438,24.964844 c -0.355469,0 -0.699219,-0.08203 -1.027344,-0.234375 C 78.503906,21.777344 71.828125,20.28125 64.90625,20.28125 h -1.132812 c -0.609376,0 -1.15625,-0.382812 -1.359376,-0.960938 -0.203124,-0.578124 -0.01953,-1.21875 0.453126,-1.601562 1.789062,-1.441406 3.503906,-3.121094 5.167968,-4.746094 3.921875,-3.84375 7.96875,-7.816406 13.21875,-9.144531 0.1875,-0.046875 0.390625,-0.074219 0.597656,-0.074219 1.261719,0 2.3125,0.984375 2.394532,2.246094 0.386718,5.390625 1.644531,10.65625 3.726562,15.632812 0.3125,0.753907 0.230469,1.597657 -0.214844,2.261719 -0.449218,0.667969 -1.191406,1.070313 -1.984374,1.070313"
         style="fill:#4aa6e1;fill-opacity:1;fill-rule:nonzero;stroke:none" />
      <path
         id="path80"
         d="m 75.953125,129.94141 c -1.332031,0 -2.417969,-1.07813 -2.417969,-2.40625 v -3.70313 c 0,-9.51953 -7.742187,-17.26562 -17.261718,-17.26562 h -3.683594 c -1.042969,0 -1.9375,-0.63672 -2.273438,-1.625 -0.339844,-0.99219 -0.02734,-2.04688 0.804688,-2.69141 0.847656,-0.64453 1.734375,-1.20703 2.644531,-1.68359 2.664063,-1.414066 5.691406,-2.19141 8.746094,-2.246098 0.0078,0 0.0625,0.0039 0.08203,0.0039 l 9.738281,0.382812 C 82.632812,98.691406 91.300781,90.613281 91.65625,80.691406 91.835938,75.5625 89.976562,70.707031 86.421875,67.019531 83.273438,63.75 79.035156,61.75 74.480469,61.382812 73.257812,61.285156 72.300781,60.296875 72.253906,59.078125 72.25,59.0625 72.25,59.042969 72.25,59.023438 c 0,-0.164063 0,-0.332032 -0.0039,-0.5 -0.0039,-0.183594 -0.0039,-0.371094 -0.0039,-0.554688 0,-1.441406 0.05469,-2.898438 0.167968,-4.332031 L 70.503906,53.4375 c -0.117187,1.527344 -0.175781,3.050781 -0.175781,4.53125 0,6.160156 0.957031,12.214844 2.84375,17.988281 0.402344,1.207031 0.0078,2.425781 -1.035156,3.171875 -0.285157,0.210938 -0.902344,0.566406 -1.722657,0.566406 -0.628906,0 -1.238281,-0.214843 -1.769531,-0.617187 C 62.3125,74.261719 57.347656,67.457031 54.671875,59.917969 54.367188,59.046875 54.589844,58.0625 55.242188,57.410156 l 3.613281,-3.605468 -1.359375,-1.351563 -5.464844,5.464844 0.04687,0.160156 c 0.07422,0.246094 0.113281,0.476563 0.113281,0.707031 0,1.324219 -1.078125,2.398438 -2.402344,2.398438 h -0.05078 c -0.02734,0 -0.05859,0 -0.08984,0 C 36.375,60.335938 23.941406,54.625 14.636719,45.097656 c -0.679688,-0.691406 -0.875,-1.71875 -0.5,-2.617187 0.375,-0.894531 1.242187,-1.472657 2.210937,-1.472657 H 30.675781 V 39.09375 h -19.84375 c -0.792969,0 -1.53125,-0.382812 -1.984375,-1.023438 -1.996094,-2.914062 -3.710937,-6 -5.101562,-9.183593 -0.625,-1.46875 -0.503906,-3.070313 0.328125,-4.402344 C 4.9375,23.082031 6.585938,22.203125 8.375,22.203125 l 56.53125,-0.0078 c 11.753906,0 22.859375,4.546876 31.269531,12.804688 8.394529,8.246094 13.148439,19.246094 13.378909,30.96875 0,0.01172 0,0.890625 0,0.890625 0,13.488281 -7.36328,26.898437 -18.757815,34.167962 -5.601563,3.57422 -8.949219,9.53125 -8.949219,15.9375 v 0.11329 c 0.05469,4.37109 -1.335937,8.5039 -4.015625,11.93749 -0.453125,0.58594 -1.136719,0.92579 -1.878906,0.92579"
         style="fill:#4aa6e1;fill-opacity:1;fill-rule:nonzero;stroke:none" />
      <path
         id="path82"
         d="m 102.60156,86.578125 c -0.22265,-2.898437 -0.78125,-5.703125 -1.6289,-8.378906 -3.996098,2.609375 -7.601566,13.785156 -15.292972,14.984375 l -12.925782,5.511718 c 0,0 0.0039,0 0.0039,0 -0.144531,0.0039 -0.285156,0.01172 -0.425781,0.01172 L 62.59375,98.324219 c -0.01953,0 -0.07422,-0.0039 -0.08203,-0.0039 -3.054688,0.05469 -6.082031,0.832032 -8.746094,2.246101 -0.910156,0.47656 -1.796875,1.03906 -2.644531,1.68359 -0.832032,0.64453 -1.144532,1.69922 -0.804688,2.69141 0.335938,0.98828 1.230469,1.625 2.273438,1.625 h 3.683594 c 9.519531,0 17.261718,7.74609 17.261718,17.26562 v 3.70313 c 0,1.32812 1.085938,2.40625 2.417969,2.40625 0.742187,0 1.425781,-0.33985 1.878906,-0.92579 2.679688,-3.43359 4.070313,-7.5664 4.015625,-11.93749 v -0.11329 c 0,-6.40625 3.347656,-12.36328 8.949219,-15.9375 5.335937,-3.402343 9.785154,-8.156249 13.011714,-13.628905 l -1.20703,-0.820313"
         style="fill:#3866b8;fill-opacity:1;fill-rule:nonzero;stroke:none" />
      <path
         id="path84"
         d="m 102.0625,70.164062 c 0,-16.554687 -13.417969,-29.972656 -29.972656,-29.972656 H 30.675781 v 0.816406 H 16.347656 c -0.96875,0 -1.835937,0.578126 -2.210937,1.472657 -0.375,0.898437 -0.179688,1.925781 0.5,2.617187 9.304687,9.527344 21.738281,15.238282 35.011719,16.085938 0.03125,0 0.0625,0 0.08984,0 h 0.05078 c 1.324219,0 2.402344,-1.074219 2.402344,-2.398438 0,-0.230468 -0.03906,-0.460937 -0.113281,-0.707031 l -0.04687,-0.160156 5.464844,-5.464844 1.359375,1.351563 -3.613281,3.605468 c -0.652344,0.652344 -0.875,1.636719 -0.570313,2.507813 2.675781,7.539062 7.640625,14.34375 13.972656,19.160156 0.53125,0.402344 1.140625,0.617187 1.769531,0.617187 0.820313,0 1.4375,-0.355468 1.722657,-0.566406 1.042969,-0.746094 1.4375,-1.964844 1.035156,-3.171875 -1.886719,-5.773437 -2.84375,-11.828125 -2.84375,-17.988281 0,-1.480469 0.05859,-3.003906 0.175781,-4.53125 l 1.90625,0.199219 c -0.113281,1.433593 -0.167968,2.890625 -0.167968,4.332031 0,0.183594 0,0.371094 0.0039,0.554688 0.0039,0.167968 0.0039,0.335937 0.0039,0.5 0,0.01953 0,0.03906 0.0039,0.05469 0.04687,1.21875 1.003906,2.207031 2.226563,2.304687 4.554687,0.367188 8.792969,2.367188 11.941406,5.636719 3.554687,3.6875 5.414063,8.542969 5.234375,13.671875 -0.347656,9.785156 -8.785156,17.769532 -18.902344,18.003906 l 1.648438,1.343745 C 89.875,98.859375 102.0625,85.9375 102.0625,70.164062"
         style="fill:#ffffff;fill-opacity:1;fill-rule:nonzero;stroke:none" />
      <path
         id="path86"
         d="m 73.871094,53.160156 -2.851563,0.01172 0.01172,0.320313 1.378906,0.144531 c -0.113281,1.433593 -0.167968,2.890625 -0.167968,4.332031 0,0.183594 0,0.371094 0.0039,0.554688 0.0039,0.167968 0.0039,0.335937 0.0039,0.5 0,0.01953 0,0.03906 0.0039,0.05469 0.04687,1.21875 1.003906,2.207031 2.226563,2.304687 4.554687,0.367188 8.792969,2.367188 11.941406,5.636719 3.554687,3.6875 5.414063,8.542969 5.234375,13.671875 -0.347656,9.785156 -8.785156,17.769532 -18.902344,18.003906 l 1.648438,1.343744 C 87.144531,99.066406 97.660156,90.132812 100.97266,78.199219 97.023438,65.753906 86.722656,56.136719 73.871094,53.160156"
         style="fill:#bfccd1;fill-opacity:1;fill-rule:nonzero;stroke:none" />
      <g
         style="clip-rule:nonzero"
         id="g90"
         clip-path="url(#clip2)">
        <path
           id="path88"
           d="m 85.359375,23.425781 c 0.792969,0.375 1.621094,-0.421875 1.285156,-1.238281 -2.128906,-5.082031 -3.433593,-10.511719 -3.839843,-16.097656 -0.03516,-0.59375 -0.613282,-1.015625 -1.199219,-0.863282 -4.851563,1.230469 -8.613281,4.902344 -12.554688,8.769532 -1.707031,1.667968 -3.433593,3.355468 -5.277343,4.84375 h 1.132812 c 7.308594,0 14.246094,1.648437 20.453125,4.585937 z M 108.11328,66.859375 V 65.996094 C 107.65234,42.5625 88.445312,23.636719 64.90625,23.636719 L 8.375,23.644531 c -1.226562,0 -2.433594,0.558594 -3.078125,1.601563 -0.585937,0.941406 -0.660156,2.042968 -0.230469,3.0625 1.382813,3.164062 3.050782,6.148437 4.960938,8.929687 0.179687,0.257813 0.480468,0.414063 0.804687,0.414063 h 20.328125 c 0.527344,0 0.957032,0.429687 0.957032,0.957031 v 2.878906 c 0,0.539063 -0.429688,0.960938 -0.957032,0.960938 h -14.8125 c -0.855468,0 -1.273437,1.035156 -0.679687,1.640625 8.910156,9.121094 20.988281,14.820312 34.070312,15.652344 0.01172,0 0.03125,0 0.05078,0 0.527344,0 0.957032,-0.429688 0.957032,-0.957032 0,-0.09766 -0.01953,-0.191406 -0.04687,-0.289062 L 50.56641,58.054688 c -0.09766,-0.335938 -0.01172,-0.699219 0.238282,-0.949219 l 6.015624,-6.015625 c 0.375,-0.375 0.976563,-0.375 1.351563,0 L 60.214844,53.125 c 0.375,0.375 0.375,0.988281 0,1.363281 l -3.953125,3.941407 C 56.003906,58.6875 55.90625,59.082031 56.03125,59.4375 c 2.589844,7.300781 7.332031,13.8125 13.488281,18.492188 0.816407,0.625 1.566407,0.183593 1.773438,0.03125 0.308593,-0.222657 0.789062,-0.71875 0.511719,-1.554688 -1.9375,-5.929688 -2.917969,-12.136719 -2.917969,-18.4375 0,-1.707031 0.07813,-3.433594 0.222656,-5.140625 0.04687,-0.539063 0.527344,-0.921875 1.0625,-0.875 L 73.03125,52.25 c 0.527344,0.05859 0.902344,0.511719 0.855469,1.039062 -0.136719,1.550782 -0.203125,3.125 -0.203125,4.679688 0,0.355469 0.0078,0.710938 0.0078,1.054688 0.01953,0.5 0.414063,0.882812 0.902344,0.921874 4.894531,0.394532 9.421875,2.492188 12.863281,6.070313 3.828125,3.972656 5.832031,9.199219 5.640625,14.726563 -0.3828,10.695312 -9.707019,19.406252 -20.796863,19.406252 l -9.765625,-0.382815 c -2.828125,0.04687 -5.628906,0.765625 -8.105468,2.078125 -0.863282,0.45313 -1.667969,0.96875 -2.425782,1.54688 -0.730468,0.5664 -0.335937,1.73437 0.585938,1.73437 h 3.683594 c 10.332031,0 18.703124,8.375 18.703124,18.70703 v 3.70313 c 0,0.91015 1.164063,1.3125 1.71875,0.59375 2.457032,-3.14453 3.761719,-6.99219 3.710938,-11.05078 v -0.11329 c 0,-6.90625 3.597656,-13.3164 9.613281,-17.15234 10.992189,-7.011719 18.093749,-19.945312 18.093749,-32.953125 z m 4.80469,0 v 2.398437 h -0.0781 c -0.8164,13.777344 -8.57421,27.160157 -20.249996,34.601568 -4.621094,2.95703 -7.386719,7.84765 -7.386719,13.10546 0.07813,6.14844 -2.253906,11.875 -6.558594,16.19141 -1.429687,1.41797 -3.070312,2.66797 -4.894531,3.68359 l -2.140625,1.20703 c -0.640625,0.35547 -1.425781,-0.10546 -1.425781,-0.83984 v -13.375 c 0,-7.68359 -6.238282,-13.91015 -13.910156,-13.91015 H 42.890625 c -0.730469,0 -1.199219,-0.78516 -0.835937,-1.42969 l 1.199218,-2.14844 c 2.140625,-3.78906 5.144532,-6.734375 8.933594,-8.738281 3.164062,-1.679688 6.742188,-2.589844 10.339844,-2.636719 h 0.06641 l 9.804688,0.382812 c 8.441406,0 15.617187,-6.628906 15.902343,-14.78125 0.144531,-4.210937 -1.371093,-8.203124 -4.296875,-11.222656 -2.347656,-2.4375 -5.351562,-3.972656 -8.621094,-4.492187 -0.644531,-0.09375 -1.210937,0.453125 -1.113281,1.09375 0.429688,2.984375 1.113281,5.917969 2.03125,8.777343 0.847657,2.621094 0,5.5625 -2.234375,7.148438 -1.101562,0.777344 -2.367187,1.167969 -3.636718,1.167969 -1.339844,0 -2.675782,-0.429688 -3.808594,-1.292969 C 60.90625,77.414062 56.292969,71.65625 53.222656,65.152344 53.058594,64.847656 52.742188,64.644531 52.378906,64.644531 29.875,64.359375 9.632812,50.910156 0.664062,30.207031 -0.640625,27.1875 -0.0078125,23.636719 2.429688,21.199219 3.992188,19.625 6.1875,18.851562 8.40625,18.851562 l 43.539062,-0.01172 c 5.296876,0 9.210938,-3.835938 13.757813,-8.277344 C 70.757812,5.613281 76.484375,0 85.070312,0 h 1.4375 c 0.539063,0 0.960938,0.433594 0.960938,0.960938 v 1.4375 c 0,11.75 4.394531,22.957031 12.363281,31.570312 8.105469,8.605469 13.085939,20.171875 13.085939,32.890625"
           style="fill:#1e1714;fill-opacity:1;fill-rule:nonzero;stroke:none" />
      </g>
      <path
         id="path92"
         d="m 55.734375,33.007812 c 1.554687,2.332032 2.34375,5.113282 2.234375,7.933594 -0.08594,2.464844 -0.851562,4.816406 -2.234375,6.867188 -0.316406,0.480468 -0.957031,0.597656 -1.410156,0.242187 L 52.0625,46.257812 c -0.386719,-0.300781 -0.480469,-0.847656 -0.222656,-1.25 0.824218,-1.285156 1.285156,-2.734374 1.34375,-4.238281 0.05859,-1.792969 -0.402344,-3.5 -1.363282,-4.988281 C 51.5625,35.378906 51.675781,34.839844 52.0625,34.542969 l 2.273438,-1.785157 c 0.441406,-0.34375 1.09375,-0.230468 1.398437,0.25"
         style="fill:#1e1714;fill-opacity:1;fill-rule:nonzero;stroke:none" />
      <path
         id="path94"
         d="m 46.144531,33.007812 c 1.550781,2.332032 2.339844,5.113282 2.234375,7.933594 -0.08594,2.464844 -0.855468,4.816406 -2.234375,6.867188 -0.316406,0.480468 -0.960937,0.597656 -1.410156,0.242187 L 42.46875,46.257812 c -0.382812,-0.300781 -0.480469,-0.847656 -0.222656,-1.25 0.828125,-1.285156 1.289062,-2.734374 1.34375,-4.238281 0.05859,-1.792969 -0.402344,-3.5 -1.359375,-4.988281 -0.261719,-0.402344 -0.144531,-0.941406 0.238281,-1.238281 l 2.273438,-1.785157 c 0.441406,-0.34375 1.09375,-0.230468 1.402343,0.25"
         style="fill:#1e1714;fill-opacity:1;fill-rule:nonzero;stroke:none" />
      <path
         id="path96"
         d="m 29.078125,27.320312 c 1.324219,0 2.398437,1.074219 2.398437,2.398438 0,1.324219 -1.074218,2.398438 -2.398437,2.398438 -1.324219,0 -2.398437,-1.074219 -2.398437,-2.398438 0,-1.324219 1.074218,-2.398438 2.398437,-2.398438"
         style="fill:#1e1714;fill-opacity:1;fill-rule:nonzero;stroke:none" />
    </g>
  </g>
</svg>
